<svg id="b6edf2a6-14b6-4967-96e9-92d46e85a117" data-name="a059ee41-6eca-453b-ac38-f9e6539cb447" xmlns="http://www.w3.org/2000/svg" viewBox="0 0 1883.93 479.11"><defs><style>.ad4513db-e562-4962-aeb6-bae8b46efdd8,.ba126653-202a-411b-a445-015f35a05139{fill:#fff;}.b0e5ed94-9b2b-42e2-8897-c16734ec7a94,.ee33a946-c412-4174-84f1-a9ff833fdebb{fill:#012;}.ee33a946-c412-4174-84f1-a9ff833fdebb{stroke:#000;stroke-width:5px;}.ad4513db-e562-4962-aeb6-bae8b46efdd8,.ee33a946-c412-4174-84f1-a9ff833fdebb{stroke-miterlimit:10;}.ad4513db-e562-4962-aeb6-bae8b46efdd8{stroke:#012;stroke-width:15px;}</style></defs><rect class="ba126653-202a-411b-a445-015f35a05139" x="98.07" y="169.86" width="296.94" height="272" rx="12"/><rect class="ba126653-202a-411b-a445-015f35a05139" x="104.69" y="152.86" width="287.32" height="95.36" rx="12"/><rect class="ba126653-202a-411b-a445-015f35a05139" x="98.07" y="430.97" width="299.75" height="27.17" rx="12"/><path class="b0e5ed94-9b2b-42e2-8897-c16734ec7a94" d="M609.25,348V198.91h43.5V216c7.5-13.2,26.7-21.59,42.9-21.59,21.3,0,36.6,8.7,44.1,23.4,11.7-16.81,26.1-23.4,46.2-23.4,28.21,0,55.21,16.5,55.21,57V348h-44.1V261.6c0-14.1-7.51-25.2-23.71-25.2s-24.9,12.3-24.9,25.5V348h-45V261.6c0-14.1-7.5-25.2-24-25.2-15.9,0-24.6,12.3-24.6,25.8V348Z" transform="translate(0 0)"/><path class="b0e5ed94-9b2b-42e2-8897-c16734ec7a94" d="M902.05,126.6a26.7,26.7,0,1,1-26.4,27v-.3A26.82,26.82,0,0,1,902.05,126.6ZM879.55,348V198.91h45.6V348Z" transform="translate(0 0)"/><path class="b0e5ed94-9b2b-42e2-8897-c16734ec7a94" d="M1000.45,273.61l-52.21-74.7H1002l26.7,40.79,26.09-40.79h51l-51.6,72.9c16.8,24,36.3,52.2,53.4,76.2h-53.4l-27.61-42c-8.09,12-19.2,29.7-27.3,42h-50.1Z" transform="translate(0 0)"/><path class="b0e5ed94-9b2b-42e2-8897-c16734ec7a94" d="M1130.64,348V198.91h43.5V216c7.5-13.2,26.7-21.59,42.9-21.59,21.3,0,36.6,8.7,44.1,23.4,11.7-16.81,26.1-23.4,46.2-23.4,28.2,0,55.2,16.5,55.2,57V348h-44.1V261.6c0-14.1-7.5-25.2-23.7-25.2s-24.9,12.3-24.9,25.5V348h-45V261.6c0-14.1-7.5-25.2-24-25.2-15.9,0-24.6,12.3-24.6,25.8V348Z" transform="translate(0 0)"/><path class="b0e5ed94-9b2b-42e2-8897-c16734ec7a94" d="M1564.73,348V130.8h45.6V348Z" transform="translate(0 0)"/><path class="b0e5ed94-9b2b-42e2-8897-c16734ec7a94" d="M1650.53,348V130.8h45.6V348Z" transform="translate(0 0)"/><path class="b0e5ed94-9b2b-42e2-8897-c16734ec7a94" d="M1883.93,273.31c0,46.2-34.5,79.2-79.2,79.2-44.4,0-79.2-33-79.2-79.2s34.8-78.9,79.2-78.9C1849.43,194.41,1883.93,227.11,1883.93,273.31Zm-45.6,0c0-25.2-16.2-36.9-33.6-36.9-17.1,0-33.6,11.7-33.6,36.9,0,24.9,16.5,37.2,33.6,37.2,17.4,0,33.6-12,33.6-37.2Z" transform="translate(0 0)"/><path class="ee33a946-c412-4174-84f1-a9ff833fdebb" d="M247.94,151.52c44.34,0,85.74,4.16,116.27,11.72,18.4,4.54,28,9.07,32.2,11.72V438.05c-3.76,2.65-13.38,7.19-32.2,11.72-30.53,7.56-71.93,11.72-116.27,11.72s-85.73-4.16-116.26-11.72c-18.41-4.53-28-9.07-32.21-11.72V175c3.77-2.65,13.39-7.18,32.21-11.72,30.53-7.56,71.93-11.72,116.26-11.72Zm0-15.12c-45.58,0-88.66,4.16-120.86,12.1-30.54,7.56-44.34,16.63-44.34,22.3V442.21c0,5.67,13.8,14.74,44.34,22.3,32.2,7.56,75.28,12.1,120.86,12.1s88.67-4.54,120.87-12.1c30.53-7.56,44.33-16.63,44.33-22.3V170.8c0-5.67-13.8-14.74-44.33-22.3-32.2-7.94-75.28-12.1-120.87-12.1Z" transform="translate(0 0)"/><path class="b0e5ed94-9b2b-42e2-8897-c16734ec7a94" d="M193.16,294.42a45,45,0,1,1,44.75-45.25v.09C237.91,273.93,217.83,294.42,193.16,294.42Zm0-73.19a28.44,28.44,0,1,0,28.43,28.45h0a28.47,28.47,0,0,0-28.43-28.44Z" transform="translate(0 0)"/><path class="b0e5ed94-9b2b-42e2-8897-c16734ec7a94" d="M302.73,294.42a45.17,45.17,0,1,1,45.17-45.17h0A45.25,45.25,0,0,1,302.73,294.42Zm0-73.19a28.44,28.44,0,1,0,28.44,28.44,28.44,28.44,0,0,0-28.44-28.44Z" transform="translate(0 0)"/><circle class="b0e5ed94-9b2b-42e2-8897-c16734ec7a94" cx="193.16" cy="249.26" r="9.2"/><circle class="b0e5ed94-9b2b-42e2-8897-c16734ec7a94" cx="302.74" cy="249.27" r="9.2" transform="translate(8.19 508.16) rotate(-80.78)"/><path class="ad4513db-e562-4962-aeb6-bae8b46efdd8" d="M457,216.24V214.9C457,100.54,363,7.5,247.55,7.5S38.1,100.5,38.1,214.9v1.41A42.86,42.86,0,0,0,7.5,257.24v56.44a43,43,0,0,0,43.21,42.78h0v1.64a9.76,9.76,0,0,0,9.79,9.71H75.83a9.76,9.76,0,0,0,9.81-9.69V212.82a9.76,9.76,0,0,0-9.81-9.71H62.34c6.16-95.89,86.86-172,185.23-172s179.06,76.15,185.22,172H419.62a9.76,9.76,0,0,0-9.81,9.71h0V358.1a9.75,9.75,0,0,0,9.79,9.71h15.33a9.76,9.76,0,0,0,9.81-9.69v-1.66A43,43,0,0,0,488,313.72V257.24A42.85,42.85,0,0,0,457,216.24Z" transform="translate(0 0)"/><path d="M1535.49,302.86c-7.2,25.8-30.9,47.4-68.7,47.4-41.11,0-77.71-29.4-77.71-79.51,0-48,35.7-78.6,74.41-78.6,46.2,0,74.7,28.5,74.7,76.51a95.29,95.29,0,0,1-.9,14.1H1433.48c.9,16.8,16.2,28.8,33.9,28.8,16.5,0,25.81-7.8,30-19.5Zm-41.4-49.51c-.6-11.4-8.4-25.2-30-25.2-19.21,0-28.8,14.1-29.71,25.2Z" transform="translate(0 0)"/></svg>