<svg xmlns="http://www.w3.org/2000/svg" viewBox="0 0 495.45 479.11"><defs><style>.b3db7f45-2203-4896-a8c9-3d70cd786dfb,.b46ac256-6bd1-436c-8d15-b14bccc6c460{fill:#012;}.b46ac256-6bd1-436c-8d15-b14bccc6c460{stroke:#000;stroke-width:5px;}.b46ac256-6bd1-436c-8d15-b14bccc6c460,.f0dc538c-6b50-4b95-846f-740c77e60f4f{stroke-miterlimit:10;}.f0dc538c-6b50-4b95-846f-740c77e60f4f{fill:#00ba89;stroke:#012;stroke-width:15px;}</style></defs><g id="b35cdfcb-cd30-4bba-a6b0-c25a0ef9c53f" data-name="Layer 2"><g id="a7b13689-7626-45c7-8550-3e7aa21a6b40" data-name="bbaa4133-0238-4536-8fd4-e3dbd9664f09"><path class="b46ac256-6bd1-436c-8d15-b14bccc6c460" d="M247.94,151.52c44.34,0,85.74,4.16,116.27,11.72,18.4,4.54,28,9.07,32.2,11.72V438.05c-3.76,2.65-13.38,7.19-32.2,11.72-30.53,7.56-71.93,11.72-116.27,11.72s-85.73-4.16-116.26-11.72c-18.41-4.53-28-9.07-32.21-11.72V175c3.77-2.65,13.39-7.18,32.21-11.72,30.53-7.56,71.93-11.72,116.26-11.72Zm0-15.12c-45.58,0-88.66,4.16-120.86,12.1-30.54,7.56-44.34,16.63-44.34,22.3V442.21c0,5.67,13.8,14.74,44.34,22.3,32.2,7.56,75.28,12.1,120.86,12.1s88.67-4.54,120.87-12.1c30.53-7.56,44.33-16.63,44.33-22.3V170.8c0-5.67-13.8-14.74-44.33-22.3-32.2-7.94-75.28-12.1-120.87-12.1Z"/><path class="b3db7f45-2203-4896-a8c9-3d70cd786dfb" d="M193.16,294.42a45,45,0,1,1,44.75-45.16C237.91,273.93,217.83,294.42,193.16,294.42Zm0-73.19a28.44,28.44,0,1,0,28.43,28.44A28.47,28.47,0,0,0,193.16,221.23Z"/><path class="b3db7f45-2203-4896-a8c9-3d70cd786dfb" d="M302.73,294.42a45.17,45.17,0,1,1,45.17-45.16A45.25,45.25,0,0,1,302.73,294.42Zm0-73.19a28.44,28.44,0,1,0,28.44,28.44A28.47,28.47,0,0,0,302.73,221.23Z"/><circle class="b3db7f45-2203-4896-a8c9-3d70cd786dfb" cx="193.16" cy="249.26" r="9.2"/><circle class="b3db7f45-2203-4896-a8c9-3d70cd786dfb" cx="302.73" cy="249.26" r="9.2" transform="translate(8.2 508.15) rotate(-80.78)"/><path class="f0dc538c-6b50-4b95-846f-740c77e60f4f" d="M457,216.24V214.9c0-114.36-94-207.4-209.45-207.4s-209.45,93-209.45,207.4v1.41A42.86,42.86,0,0,0,7.5,257.24v56.44a43,43,0,0,0,43.21,42.78h0v1.64a9.75,9.75,0,0,0,9.81,9.71H75.83a9.75,9.75,0,0,0,9.81-9.71V212.82a9.76,9.76,0,0,0-9.81-9.71H62.34c6.16-95.89,86.86-172,185.23-172s179.06,76.15,185.22,172H419.62a9.76,9.76,0,0,0-9.81,9.71V358.1a9.75,9.75,0,0,0,9.81,9.71h15.31a9.75,9.75,0,0,0,9.81-9.71v-1.64A43,43,0,0,0,488,313.68V257.24A42.85,42.85,0,0,0,457,216.24Z"/></g></g></svg>