<svg xmlns="http://www.w3.org/2000/svg" viewBox="0 0 539.29 492"><defs><style>.e54c56a6-9064-47e2-a297-3d1a409744e1{fill:#fff;}.a7ec4bbb-8ff7-42db-bbe0-02136950c3cc,.aae84c9e-1389-4df3-a76f-47034ce5171b{fill:#012;}.a7ec4bbb-8ff7-42db-bbe0-02136950c3cc{stroke:#000;stroke-width:5px;}.a32a8a42-11c7-4581-9f86-4bf74af3c866,.a7ec4bbb-8ff7-42db-bbe0-02136950c3cc{stroke-miterlimit:10;}.a32a8a42-11c7-4581-9f86-4bf74af3c866{fill:#00ba89;stroke:#012;stroke-width:20px;}</style></defs><g id="fab238e5-4a98-4e38-b424-c11cc73ee084" data-name="Layer 2"><g id="b933f69c-3890-4f42-be36-323a7e684247" data-name="b6edf2a6-14b6-4967-96e9-92d46e85a117"><rect class="e54c56a6-9064-47e2-a297-3d1a409744e1" x="116.07" y="182.75" width="296.94" height="272" rx="12"/><rect class="e54c56a6-9064-47e2-a297-3d1a409744e1" x="122.69" y="165.75" width="287.32" height="95.36" rx="12"/><rect class="e54c56a6-9064-47e2-a297-3d1a409744e1" x="116.07" y="443.86" width="299.75" height="27.17" rx="12"/><path class="a7ec4bbb-8ff7-42db-bbe0-02136950c3cc" d="M269.62,164.41c42.45,0,82.1,4.16,111.33,11.72,17.62,4.54,26.82,9.07,30.84,11.72V450.94c-3.6,2.65-12.81,7.19-30.84,11.72-29.23,7.56-68.88,11.72-111.33,11.72s-82.1-4.16-111.33-11.72c-17.63-4.53-26.82-9.07-30.85-11.72v-263c3.61-2.65,12.82-7.18,30.85-11.72,29.23-7.56,68.87-11.72,111.33-11.72Zm0-15.12c-43.65,0-84.91,4.16-115.74,12.1-29.24,7.56-42.46,16.63-42.46,22.3V455.1c0,5.67,13.22,14.74,42.46,22.3C184.71,485,226,489.5,269.62,489.5s84.91-4.54,115.74-12.1c29.24-7.56,42.45-16.63,42.45-22.3V183.69c0-5.67-13.21-14.74-42.45-22.3-30.83-7.94-72.09-12.1-115.74-12.1Z"/><path class="aae84c9e-1389-4df3-a76f-47034ce5171b" d="M211.16,307.31a45,45,0,1,1,44.75-45.25v.09C255.91,286.82,235.83,307.31,211.16,307.31Zm0-73.19a28.44,28.44,0,1,0,28.43,28.45h0a28.47,28.47,0,0,0-28.43-28.44Z"/><path class="aae84c9e-1389-4df3-a76f-47034ce5171b" d="M320.73,307.31a45.17,45.17,0,1,1,45.17-45.17h0A45.24,45.24,0,0,1,320.73,307.31Zm0-73.19a28.44,28.44,0,1,0,28.44,28.44,28.44,28.44,0,0,0-28.44-28.44Z"/><circle class="aae84c9e-1389-4df3-a76f-47034ce5171b" cx="211.16" cy="262.15" r="9.2"/><circle class="aae84c9e-1389-4df3-a76f-47034ce5171b" cx="320.75" cy="262.16" r="9.2" transform="translate(10.58 536.76) rotate(-80.78)"/><path class="a32a8a42-11c7-4581-9f86-4bf74af3c866" d="M269.94,10C175.83,10,39.35,60.16,34.27,221.11l-9.78,4.61c-18.29,5.26-14,29.53-14.12,48.56L10,327.93v21.46c.14,23.75,39.8,20.1,63.55,20V371a9.76,9.76,0,0,0,9.81,9.69H98.69a9.75,9.75,0,0,0,9.79-9.71V225.71h0A9.76,9.76,0,0,0,98.67,216H85.5c6.16-95.85,86.07-159.69,184.44-159.69h-.59c98.37,0,178.28,63.84,184.44,159.69H440.62a9.76,9.76,0,0,0-9.81,9.71h0V371a9.74,9.74,0,0,0,9.79,9.71h15.33a9.76,9.76,0,0,0,9.81-9.69v-1.66c23.75.14,63.4,3.79,63.55-20V327.93l-.38-53.65c-.08-19,4.18-43.3-14.11-48.56L505,221.11C499.94,60.16,363.46,10,269.35,10"/></g></g></svg>