<svg id="aa070e60-674c-41e3-844c-6e6796c4cddc" data-name="Layer 1" xmlns="http://www.w3.org/2000/svg" viewBox="0 0 495.5 479.11"><defs><style>.be172c82-ad75-41bd-a3b4-1097b438b0ca{fill:#fff;}.b5475319-1a3b-423b-9fe6-6385a8c4b05d,.b5ec08f3-a0e3-4c72-be08-c5376bdad8ec{fill:#012;}.b5ec08f3-a0e3-4c72-be08-c5376bdad8ec{stroke:#000;stroke-width:5px;}.b5ec08f3-a0e3-4c72-be08-c5376bdad8ec,.b69a0820-b65d-4bb0-bf5c-e18ba8b7b6d7{stroke-miterlimit:10;}.b69a0820-b65d-4bb0-bf5c-e18ba8b7b6d7{fill:#00ba89;stroke:#012;stroke-width:15px;}</style></defs><rect class="be172c82-ad75-41bd-a3b4-1097b438b0ca" x="101.13" y="169.52" width="296.94" height="272" rx="12"/><rect class="be172c82-ad75-41bd-a3b4-1097b438b0ca" x="107.75" y="152.52" width="287.32" height="95.36" rx="12"/><rect class="be172c82-ad75-41bd-a3b4-1097b438b0ca" x="101.13" y="430.63" width="299.75" height="27.17" rx="12"/><g id="f2bf77ee-213f-4145-8637-759659c1fb3b" data-name="b35cdfcb-cd30-4bba-a6b0-c25a0ef9c53f"><g id="a1295bae-6dbd-4c49-9810-7d8fe4e84c23" data-name="a7b13689-7626-45c7-8550-3e7aa21a6b40"><path class="b5ec08f3-a0e3-4c72-be08-c5376bdad8ec" d="M247.94,151.52c44.34,0,85.74,4.16,116.27,11.72,18.4,4.54,28,9.07,32.2,11.72V438.05c-3.76,2.65-13.38,7.19-32.2,11.72-30.53,7.56-71.93,11.72-116.27,11.72s-85.73-4.16-116.26-11.72c-18.41-4.53-28-9.07-32.21-11.72V175c3.77-2.65,13.39-7.18,32.21-11.72,30.53-7.56,71.93-11.72,116.26-11.72Zm0-15.12c-45.58,0-88.66,4.16-120.86,12.1-30.54,7.56-44.34,16.63-44.34,22.3V442.21c0,5.67,13.8,14.74,44.34,22.3,32.2,7.56,75.28,12.1,120.86,12.1s88.67-4.54,120.87-12.1c30.53-7.56,44.33-16.63,44.33-22.3V170.8c0-5.67-13.8-14.74-44.33-22.3-32.2-7.94-75.28-12.1-120.87-12.1Z" transform="translate(0 0)"/><path class="b5475319-1a3b-423b-9fe6-6385a8c4b05d" d="M193.16,294.42a45,45,0,1,1,44.75-45.25v.09C237.91,273.93,217.83,294.42,193.16,294.42Zm0-73.19a28.44,28.44,0,1,0,28.43,28.45h0a28.47,28.47,0,0,0-28.43-28.44Z" transform="translate(0 0)"/><path class="b5475319-1a3b-423b-9fe6-6385a8c4b05d" d="M302.73,294.42a45.17,45.17,0,1,1,45.17-45.17h0A45.25,45.25,0,0,1,302.73,294.42Zm0-73.19a28.44,28.44,0,1,0,28.44,28.44,28.44,28.44,0,0,0-28.44-28.44Z" transform="translate(0 0)"/><circle class="b5475319-1a3b-423b-9fe6-6385a8c4b05d" cx="193.16" cy="249.26" r="9.2"/><circle class="b5475319-1a3b-423b-9fe6-6385a8c4b05d" cx="302.74" cy="249.27" r="9.2" transform="translate(8.19 508.16) rotate(-80.78)"/><path class="b69a0820-b65d-4bb0-bf5c-e18ba8b7b6d7" d="M457,216.24V214.9C457,100.54,363,7.5,247.55,7.5S38.1,100.5,38.1,214.9v1.41A42.86,42.86,0,0,0,7.5,257.24v56.44a43,43,0,0,0,43.21,42.78h0v1.64a9.76,9.76,0,0,0,9.79,9.71H75.83a9.76,9.76,0,0,0,9.81-9.69V212.82a9.76,9.76,0,0,0-9.81-9.71H62.34c6.16-95.89,86.86-172,185.23-172s179.06,76.15,185.22,172H419.62a9.76,9.76,0,0,0-9.81,9.71h0V358.1a9.75,9.75,0,0,0,9.79,9.71h15.33a9.76,9.76,0,0,0,9.81-9.69v-1.66A43,43,0,0,0,488,313.72V257.24A42.85,42.85,0,0,0,457,216.24Z" transform="translate(0 0)"/></g></g></svg>