<svg id="f9780802-9fbf-44c7-beb1-32ad03e2672f" data-name="e7ab6e10-da6f-4507-b0cb-b4f6e3fdea87" xmlns="http://www.w3.org/2000/svg" viewBox="0 0 1883.8 479.1"><defs><style>.a71cf092-f1df-441d-ac2a-a10393e740a2{fill:#fff;}.a8ec074e-bf85-48ca-a192-b402408928b4,.b6d43c26-b80f-4dc7-8279-d293141a32e3{fill:#012;}.a009ebbd-5fac-4f3e-a54b-97917e330e19,.a8ec074e-bf85-48ca-a192-b402408928b4{stroke:#012;stroke-miterlimit:10;}.a8ec074e-bf85-48ca-a192-b402408928b4{stroke-width:5px;}.a009ebbd-5fac-4f3e-a54b-97917e330e19{fill:#00ba89;stroke-width:15px;}</style></defs><rect class="a71cf092-f1df-441d-ac2a-a10393e740a2" x="97.77" y="170.86" width="296.94" height="272" rx="12"/><rect class="a71cf092-f1df-441d-ac2a-a10393e740a2" x="104.39" y="153.86" width="287.32" height="95.36" rx="12"/><rect class="a71cf092-f1df-441d-ac2a-a10393e740a2" x="97.77" y="431.97" width="299.75" height="27.17" rx="12"/><path class="b6d43c26-b80f-4dc7-8279-d293141a32e3" d="M609.2,348V198.9h43.5V216c7.5-13.2,26.7-21.6,42.9-21.6,21.3,0,36.6,8.7,44.1,23.4,11.7-16.8,26.1-23.4,46.2-23.4,28.2,0,55.2,16.5,55.2,57V348H797V261.6c0-14.1-7.5-25.2-23.7-25.2s-24.9,12.3-24.9,25.5V348h-45V261.6c0-14.1-7.5-25.2-24-25.2-15.9,0-24.6,12.3-24.6,25.8V348Z" transform="translate(-0.1 0)"/><path class="b6d43c26-b80f-4dc7-8279-d293141a32e3" d="M902,126.6a26.7,26.7,0,1,1-26.4,27v-.3A26.83,26.83,0,0,1,902,126.6ZM879.5,348V198.9h45.6V348Z" transform="translate(-0.1 0)"/><path class="b6d43c26-b80f-4dc7-8279-d293141a32e3" d="M1000.5,273.6l-52.2-74.7h53.8l26.7,40.8,26.1-40.8h51l-51.6,72.9c16.8,24,36.3,52.2,53.4,76.2h-53.4l-27.6-42c-8.1,12-19.2,29.7-27.3,42H949.3Z" transform="translate(-0.1 0)"/><path class="b6d43c26-b80f-4dc7-8279-d293141a32e3" d="M1130.6,348V198.9h43.5V216c7.5-13.2,26.7-21.6,42.9-21.6,21.3,0,36.6,8.7,44.1,23.4,11.7-16.8,26.1-23.4,46.2-23.4,28.2,0,55.2,16.5,55.2,57V348h-44.1V261.6c0-14.1-7.5-25.2-23.7-25.2s-24.9,12.3-24.9,25.5V348h-45V261.6c0-14.1-7.5-25.2-24-25.2-15.9,0-24.6,12.3-24.6,25.8V348Z" transform="translate(-0.1 0)"/><path class="b6d43c26-b80f-4dc7-8279-d293141a32e3" d="M1564.7,348V130.8h45.6V348Z" transform="translate(-0.1 0)"/><path class="b6d43c26-b80f-4dc7-8279-d293141a32e3" d="M1650.5,348V130.8h45.6V348Z" transform="translate(-0.1 0)"/><path class="b6d43c26-b80f-4dc7-8279-d293141a32e3" d="M1883.9,273.3c0,46.2-34.5,79.2-79.2,79.2-44.4,0-79.2-33-79.2-79.2s34.8-78.9,79.2-78.9C1849.4,194.4,1883.9,227.1,1883.9,273.3Zm-45.6,0c0-25.2-16.2-36.9-33.6-36.9-17.1,0-33.6,11.7-33.6,36.9,0,24.9,16.5,37.2,33.6,37.2,17.4,0,33.6-12,33.6-37.2Z" transform="translate(-0.1 0)"/><path class="a8ec074e-bf85-48ca-a192-b402408928b4" d="M247.9,151.5c44.3,0,85.7,4.2,116.3,11.7,18.4,4.5,28,9.1,32.2,11.7V438c-3.8,2.6-13.4,7.2-32.2,11.7-30.5,7.6-71.9,11.7-116.3,11.7s-85.7-4.2-116.3-11.7c-18.4-4.5-28-9.1-32.2-11.7V175c3.8-2.6,13.4-7.2,32.2-11.7,30.6-7.6,72-11.7,116.3-11.8Zm0-15.1c-45.6,0-88.7,4.2-120.9,12.1-30.5,7.6-44.3,16.6-44.3,22.3V442.2c0,5.7,13.8,14.7,44.3,22.3,32.2,7.6,75.3,12.1,120.9,12.1s88.7-4.5,120.9-12.1c30.5-7.6,44.3-16.6,44.3-22.3V170.8c0-5.7-13.8-14.7-44.3-22.3-32.2-7.9-75.3-12.1-120.9-12.1Z" transform="translate(-0.1 0)"/><path class="b6d43c26-b80f-4dc7-8279-d293141a32e3" d="M193.2,294.4a45,45,0,1,1,44.7-45.2v.1C237.9,273.9,217.8,294.4,193.2,294.4Zm0-73.2a28.45,28.45,0,1,0,28.4,28.5h0a28.53,28.53,0,0,0-28.4-28.5Z" transform="translate(-0.1 0)"/><path class="b6d43c26-b80f-4dc7-8279-d293141a32e3" d="M302.7,294.4a45.2,45.2,0,1,1,45.2-45.2h0A45.15,45.15,0,0,1,302.7,294.4Zm0-73.2a28.4,28.4,0,1,0,28.4,28.4,28.38,28.38,0,0,0-28.4-28.4Z" transform="translate(-0.1 0)"/><circle class="b6d43c26-b80f-4dc7-8279-d293141a32e3" cx="193.1" cy="249.3" r="9.2"/><circle class="b6d43c26-b80f-4dc7-8279-d293141a32e3" cx="302.77" cy="249.31" r="9.2" transform="translate(8.08 508.22) rotate(-80.78)"/><path class="a009ebbd-5fac-4f3e-a54b-97917e330e19" d="M457,216.2v-1.3C457,100.5,363,7.5,247.6,7.5S38.2,100.5,38.2,214.9v1.4A42.87,42.87,0,0,0,7.6,257.2v56.4a43.06,43.06,0,0,0,43.2,42.8h0V358a9.73,9.73,0,0,0,9.8,9.7H75.9a9.73,9.73,0,0,0,9.8-9.7h0V212.8a9.73,9.73,0,0,0-9.8-9.7H62.3c6.2-95.9,86.9-172,185.2-172s179.1,76.2,185.2,172H419.5a9.73,9.73,0,0,0-9.8,9.7h0V358.1a9.73,9.73,0,0,0,9.8,9.7h15.3a9.73,9.73,0,0,0,9.8-9.7h0v-1.6a43.13,43.13,0,0,0,43.3-42.7h0V257.4A42.78,42.78,0,0,0,457,216.2Z" transform="translate(-0.1 0)"/><path d="M1535.5,302.9c-7.2,25.8-30.9,47.4-68.7,47.4-41.1,0-77.7-29.4-77.7-79.5,0-48,35.7-78.6,74.4-78.6,46.2,0,74.7,28.5,74.7,76.5a95.16,95.16,0,0,1-.9,14.1H1433.5c.9,16.8,16.2,28.8,33.9,28.8,16.5,0,25.8-7.8,30-19.5Zm-41.4-49.5c-.6-11.4-8.4-25.2-30-25.2-19.2,0-28.8,14.1-29.7,25.2Z" transform="translate(-0.1 0)"/></svg>