<svg id="ef286dc3-c464-4d2e-8ed7-d4a83991b716" data-name="Layer 1" xmlns="http://www.w3.org/2000/svg" viewBox="0 0 539.29 492"><defs><style>.e17d4883-3ada-4378-a7d7-09436b5c1c51{fill:#fff;}.a224fb2b-8460-4b58-9341-a7e0c66d9924,.a280aefd-40a0-40bb-8ff7-ca006e1ae760{fill:#012;}.a280aefd-40a0-40bb-8ff7-ca006e1ae760{stroke:#000;stroke-width:5px;}.a280aefd-40a0-40bb-8ff7-ca006e1ae760,.a32e1ee9-6dad-4338-9882-36a8202c47d3,.ae7b81a4-6ef9-41e7-a870-4adb051c1a51{stroke-miterlimit:10;}.a32e1ee9-6dad-4338-9882-36a8202c47d3{fill:#00ba89;}.a32e1ee9-6dad-4338-9882-36a8202c47d3,.ae7b81a4-6ef9-41e7-a870-4adb051c1a51{stroke:#012;stroke-width:20px;}.ae7b81a4-6ef9-41e7-a870-4adb051c1a51{fill:none;stroke-linecap:round;}</style></defs><g id="b9b5d5a1-c3a7-48f9-b8ef-5ed9689ecbd8" data-name="fab238e5-4a98-4e38-b424-c11cc73ee084"><g id="ba6369ec-b688-4f38-ba75-b7a3a7f068c6" data-name="b933f69c-3890-4f42-be36-323a7e684247"><rect class="e17d4883-3ada-4378-a7d7-09436b5c1c51" x="116.07" y="182.75" width="296.94" height="272" rx="12"/><rect class="e17d4883-3ada-4378-a7d7-09436b5c1c51" x="122.69" y="165.75" width="287.32" height="95.36" rx="12"/><rect class="e17d4883-3ada-4378-a7d7-09436b5c1c51" x="116.07" y="443.86" width="299.75" height="27.17" rx="12"/><path class="a280aefd-40a0-40bb-8ff7-ca006e1ae760" d="M269.62,164.41c42.45,0,82.1,4.16,111.33,11.72,17.62,4.54,26.82,9.07,30.84,11.72V450.94c-3.6,2.65-12.81,7.19-30.84,11.72-29.23,7.56-68.88,11.72-111.33,11.72s-82.1-4.16-111.33-11.72c-17.63-4.53-26.82-9.07-30.85-11.72v-263c3.61-2.65,12.82-7.18,30.85-11.72,29.23-7.56,68.87-11.72,111.33-11.72Zm0-15.12c-43.65,0-84.91,4.16-115.74,12.1-29.24,7.56-42.46,16.63-42.46,22.3V455.1c0,5.67,13.22,14.74,42.46,22.3,30.83,7.6,72.12,12.1,115.74,12.1s84.91-4.54,115.74-12.1c29.24-7.56,42.45-16.63,42.45-22.3V183.69c0-5.67-13.21-14.74-42.45-22.3-30.83-7.94-72.09-12.1-115.74-12.1Z" transform="translate(0 0)"/><path class="a224fb2b-8460-4b58-9341-a7e0c66d9924" d="M211.16,307.31a45,45,0,1,1,44.75-45.25v.09C255.91,286.82,235.83,307.31,211.16,307.31Zm0-73.19a28.44,28.44,0,1,0,28.43,28.45h0a28.47,28.47,0,0,0-28.43-28.44Z" transform="translate(0 0)"/><path class="a224fb2b-8460-4b58-9341-a7e0c66d9924" d="M320.73,307.31a45.17,45.17,0,1,1,45.17-45.17h0A45.24,45.24,0,0,1,320.73,307.31Zm0-73.19a28.44,28.44,0,1,0,28.44,28.44,28.44,28.44,0,0,0-28.44-28.44Z" transform="translate(0 0)"/><circle class="a224fb2b-8460-4b58-9341-a7e0c66d9924" cx="211.16" cy="262.15" r="9.2"/><circle class="a224fb2b-8460-4b58-9341-a7e0c66d9924" cx="320.75" cy="262.16" r="9.2"/><path class="a32e1ee9-6dad-4338-9882-36a8202c47d3" d="M269.94,10C175.83,10,39.35,60.16,34.27,221.11l-9.78,4.61c-18.29,5.26-14,29.53-14.12,48.56L10,327.93v21.46c.14,23.75,39.8,20.1,63.55,20V371a9.76,9.76,0,0,0,9.81,9.69H98.69a9.76,9.76,0,0,0,9.79-9.71h0V225.71h0A9.76,9.76,0,0,0,98.67,216H85.5c6.16-95.85,86.07-159.69,184.44-159.69h-.59c98.37,0,178.28,63.84,184.44,159.69H440.62a9.76,9.76,0,0,0-9.81,9.71h0V371a9.74,9.74,0,0,0,9.77,9.71h15.35a9.76,9.76,0,0,0,9.81-9.69v-1.66c23.75.14,63.4,3.79,63.55-20V327.93l-.38-53.65c-.08-19,4.18-43.3-14.11-48.56l-9.8-4.61C499.94,60.16,363.46,10,269.35,10" transform="translate(0 0)"/></g></g><path class="ae7b81a4-6ef9-41e7-a870-4adb051c1a51" d="M182.71,404.43c13.2-22,36.89-47.44,82.47-47.44" transform="translate(0 0)"/><path class="ae7b81a4-6ef9-41e7-a870-4adb051c1a51" d="M349.17,404.43C336.52,382.71,312.28,357,266.7,357" transform="translate(0 0)"/></svg>