<?xml version="1.0" encoding="utf-8"?>
<!-- Generator: Adobe Illustrator 25.2.1, SVG Export Plug-In . SVG Version: 6.00 Build 0)  -->
<svg version="1.1" id="e7ab6e10-da6f-4507-b0cb-b4f6e3fdea87"
	 xmlns="http://www.w3.org/2000/svg" xmlns:xlink="http://www.w3.org/1999/xlink" x="0px" y="0px" viewBox="0 0 1883.9 479.1"
	 style="enable-background:new 0 0 1883.9 479.1;" xml:space="preserve">
<style type="text/css">
	.st0{fill:#001122;}
	.st1{fill:#001122;stroke:#000000;stroke-width:5;stroke-miterlimit:10;}
	.st2{fill:#00BA89;stroke:#001122;stroke-width:15;stroke-miterlimit:10;}
</style>
<path class="st0" d="M609.2,348V198.9h43.5V216c7.5-13.2,26.7-21.6,42.9-21.6c21.3,0,36.6,8.7,44.1,23.4
	c11.7-16.8,26.1-23.4,46.2-23.4c28.2,0,55.2,16.5,55.2,57V348h-44.1v-86.4c0-14.1-7.5-25.2-23.7-25.2s-24.9,12.3-24.9,25.5V348h-45
	v-86.4c0-14.1-7.5-25.2-24-25.2c-15.9,0-24.6,12.3-24.6,25.8V348H609.2z"/>
<path class="st0" d="M902,126.6c14.7-0.2,26.8,11.7,27,26.4s-11.7,26.8-26.4,27c-14.7,0.2-26.8-11.7-27-26.4c0-0.1,0-0.2,0-0.3
	C875.7,138.7,887.4,126.8,902,126.6z M879.5,348V198.9h45.6V348H879.5z"/>
<path class="st0" d="M1000.5,273.6l-52.2-74.7h53.8l26.7,40.8l26.1-40.8h51l-51.6,72.9c16.8,24,36.3,52.2,53.4,76.2h-53.4l-27.6-42
	c-8.1,12-19.2,29.7-27.3,42h-50.1L1000.5,273.6z"/>
<path class="st0" d="M1130.6,348V198.9h43.5V216c7.5-13.2,26.7-21.6,42.9-21.6c21.3,0,36.6,8.7,44.1,23.4
	c11.7-16.8,26.1-23.4,46.2-23.4c28.2,0,55.2,16.5,55.2,57V348h-44.1v-86.4c0-14.1-7.5-25.2-23.7-25.2s-24.9,12.3-24.9,25.5V348h-45
	v-86.4c0-14.1-7.5-25.2-24-25.2c-15.9,0-24.6,12.3-24.6,25.8V348H1130.6z"/>
<path class="st0" d="M1564.7,348V130.8h45.6V348H1564.7z"/>
<path class="st0" d="M1650.5,348V130.8h45.6V348H1650.5z"/>
<path class="st0" d="M1883.9,273.3c0,46.2-34.5,79.2-79.2,79.2c-44.4,0-79.2-33-79.2-79.2s34.8-78.9,79.2-78.9
	C1849.4,194.4,1883.9,227.1,1883.9,273.3z M1838.3,273.3c0-25.2-16.2-36.9-33.6-36.9c-17.1,0-33.6,11.7-33.6,36.9
	c0,24.9,16.5,37.2,33.6,37.2C1822.1,310.5,1838.3,298.5,1838.3,273.3L1838.3,273.3z"/>
<path class="st1" d="M247.9,151.5c44.3,0,85.7,4.2,116.3,11.7c18.4,4.5,28,9.1,32.2,11.7V438c-3.8,2.6-13.4,7.2-32.2,11.7
	c-30.5,7.6-71.9,11.7-116.3,11.7s-85.7-4.2-116.3-11.7c-18.4-4.5-28-9.1-32.2-11.7V175c3.8-2.6,13.4-7.2,32.2-11.7
	C162.2,155.7,203.6,151.6,247.9,151.5L247.9,151.5z M247.9,136.4c-45.6,0-88.7,4.2-120.9,12.1c-30.5,7.6-44.3,16.6-44.3,22.3v271.4
	c0,5.7,13.8,14.7,44.3,22.3c32.2,7.6,75.3,12.1,120.9,12.1s88.7-4.5,120.9-12.1c30.5-7.6,44.3-16.6,44.3-22.3V170.8
	c0-5.7-13.8-14.7-44.3-22.3C336.6,140.6,293.5,136.4,247.9,136.4L247.9,136.4z"/>
<path class="st0" d="M193.2,294.4c-24.9,0.1-45.1-19.9-45.2-44.7s19.9-45.1,44.7-45.2s45.1,19.9,45.2,44.7c0,0,0,0.1,0,0.1
	C237.9,273.9,217.8,294.4,193.2,294.4z M193.2,221.2c-15.7,0-28.4,12.7-28.5,28.4c0,15.7,12.7,28.4,28.4,28.5s28.4-12.7,28.5-28.4
	c0,0,0,0,0,0C221.6,234,208.9,221.3,193.2,221.2L193.2,221.2z"/>
<path class="st0" d="M302.7,294.4c-24.9,0-45.2-20.2-45.2-45.2s20.2-45.2,45.2-45.2c24.9,0,45.2,20.2,45.2,45.2c0,0,0,0,0,0
	C347.9,274.2,327.7,294.4,302.7,294.4z M302.7,221.2c-15.7,0-28.4,12.7-28.4,28.4s12.7,28.4,28.4,28.4s28.4-12.7,28.4-28.4
	C331.2,234,318.4,221.2,302.7,221.2L302.7,221.2z"/>
<circle class="st0" cx="193.2" cy="249.3" r="9.2"/>
<ellipse transform="matrix(0.1602 -0.9871 0.9871 0.1602 8.1887 508.1631)" class="st0" cx="302.7" cy="249.3" rx="9.2" ry="9.2"/>
<path class="st2" d="M457,216.2v-1.3C457,100.5,363,7.5,247.6,7.5s-209.4,93-209.4,207.4v1.4c-18.1,5.4-30.5,22-30.6,40.9v56.4
	c0.1,23.7,19.5,42.9,43.2,42.8l0,0v1.6c0,5.4,4.4,9.7,9.8,9.7c0,0,0,0,0,0h15.3c5.4,0,9.8-4.3,9.8-9.7c0,0,0,0,0,0V212.8
	c0-5.4-4.4-9.7-9.8-9.7c0,0,0,0,0,0H62.3c6.2-95.9,86.9-172,185.2-172s179.1,76.2,185.2,172h-13.2c-5.4,0-9.8,4.3-9.8,9.7
	c0,0,0,0,0,0v145.3c0,5.4,4.4,9.7,9.8,9.7c0,0,0,0,0,0h15.3c5.4,0,9.8-4.3,9.8-9.7c0,0,0,0,0,0v-1.6c23.7,0.1,43.1-19,43.3-42.7
	c0,0,0,0,0,0v-56.4C487.9,238.2,475.3,221.5,457,216.2z"/>
<g>
	<path d="M1535.5,302.9c-7.2,25.8-30.9,47.4-68.7,47.4c-41.1,0-77.7-29.4-77.7-79.5c0-48,35.7-78.6,74.4-78.6
		c46.2,0,74.7,28.5,74.7,76.5c0,6.3-0.6,13.2-0.9,14.1h-103.8c0.9,16.8,16.2,28.8,33.9,28.8c16.5,0,25.8-7.8,30-19.5L1535.5,302.9z
		 M1494.1,253.4c-0.6-11.4-8.4-25.2-30-25.2c-19.2,0-28.8,14.1-29.7,25.2H1494.1z"/>
</g>
</svg>
